<svg width="38" height="38" viewBox="0 0 38 38" fill="none" xmlns="http://www.w3.org/2000/svg">
<path fill-rule="evenodd" clip-rule="evenodd" d="M11.2512 2.89062L8.80321 0L0 7.23426L2.44781 10.1249L11.2512 2.89062ZM29.1966 0.00112929L38 7.23539L35.552 10.126L26.7486 2.89175L29.1966 0.00112929ZM16.2105 23.9403L12.1406 19.9313L10.1153 21.9264L16.1914 27.9116L27.6556 16.6187L25.6303 14.6236L16.2105 23.9403ZM19.0001 4.12117C9.50387 4.12117 1.80371 11.7063 1.80371 21.0606C1.80371 30.4149 9.50387 38 19.0001 38C28.4963 38 36.1965 30.4149 36.1965 21.0606C36.1965 11.7063 28.4963 4.12117 19.0001 4.12117ZM5.62513 21.0606C5.62513 28.3257 11.6248 34.2357 19.0001 34.2357C26.3754 34.2357 32.3751 28.3257 32.3751 21.0606C32.3751 13.7955 26.3754 7.88549 19.0001 7.88549C11.6248 7.88549 5.62513 13.7955 5.62513 21.0606Z" fill="#DD632E"/>
</svg>
